<svg width="139" height="38" viewBox="0 0 139 38" fill="none" xmlns="http://www.w3.org/2000/svg">
<mask id="path-1-outside-1_102_16" maskUnits="userSpaceOnUse" x="0" y="0" width="33" height="38" fill="black">
<rect fill="white" width="33" height="38"/>
<path fill-rule="evenodd" clip-rule="evenodd" d="M13.6635 4.12C13.752 4.27306 13.6995 4.46877 13.5462 4.55713L10.3754 6.38476V13.6953L16.7169 17.3505L23.0584 13.6953V6.38476L19.8876 4.55713C19.7343 4.46877 19.6818 4.27306 19.7703 4.12C19.8588 3.96695 20.0549 3.91451 20.2082 4.00288L23.6994 6.01525V14.0648L16.7169 18.0895L9.73435 14.0648V6.01525L13.2256 4.00288C13.3789 3.91451 13.575 3.96695 13.6635 4.12Z"/>
<path fill-rule="evenodd" clip-rule="evenodd" d="M25.7288 7.08C25.8174 7.23306 25.7648 7.42877 25.6115 7.51713L19.1098 11.2648V18.5753L25.4513 22.2305L31.7927 18.5753V11.36H32.4338V18.9448L25.4513 22.9695L18.4687 18.9448V10.8953L25.291 6.96288C25.4443 6.87451 25.6403 6.92695 25.7288 7.08Z"/>
<path fill-rule="evenodd" clip-rule="evenodd" d="M25.4513 16.6305L32.4338 20.6553V28.7048L28.9425 30.7171C28.7892 30.8055 28.5932 30.7531 28.5047 30.6C28.4162 30.4469 28.4687 30.2512 28.622 30.1629L31.7927 28.3352V21.0248L25.4513 17.3695L19.1098 21.0248V28.3352L22.2805 30.1629C22.4338 30.2512 22.4863 30.4469 22.3978 30.6C22.3093 30.7531 22.1133 30.8055 21.96 30.7171L18.4687 28.7048V20.6553L25.4513 16.6305Z"/>
<path fill-rule="evenodd" clip-rule="evenodd" d="M7.98255 16.6305L14.9651 20.6553V28.7048L11.4738 30.7171C11.3205 30.8055 11.1245 30.7531 11.036 30.6C10.9475 30.4469 11 30.2512 11.1533 30.1629L14.324 28.3352V21.0248L7.98255 17.3695L1.64105 21.0248V28.3352L4.8118 30.1629C4.96511 30.2512 5.01763 30.4469 4.92912 30.6C4.84061 30.7531 4.64458 30.8055 4.49127 30.7171L1 28.7048V20.6553L7.98255 16.6305Z"/>
<path fill-rule="evenodd" clip-rule="evenodd" d="M7.705 7.08C7.61649 7.23306 7.66902 7.42877 7.82232 7.51713L14.3241 11.2648V18.5753L7.98259 22.2305L1.64109 18.5753V11.36H1.00004V18.9448L7.98259 22.9695L14.9651 18.9448V10.8953L8.14285 6.96288C7.98954 6.87451 7.79351 6.92695 7.705 7.08Z"/>
<path d="M16.3964 3C16.3964 2.82327 16.5399 2.68 16.7169 2.68C16.8939 2.68 17.0374 2.82327 17.0374 3V37H16.3964V3Z"/>
<path fill-rule="evenodd" clip-rule="evenodd" d="M14.9661 25.8H14.325V37H14.9661V25.8Z"/>
<path fill-rule="evenodd" clip-rule="evenodd" d="M19.1096 25.8H18.4685V37H19.1096V25.8Z"/>
<path d="M32.2593 28.28L31.9437 28.837L1.37142 11.5685L1.68709 11.0115L32.2593 28.28Z"/>
<path d="M1.56092 28.84L1.24525 28.283L31.7917 11.029L32.1074 11.5861L1.56092 28.84Z"/>
<path d="M32.4348 11.36C32.4348 11.603 32.2375 11.8 31.9941 11.8C31.7507 11.8 31.5533 11.603 31.5533 11.36C31.5533 11.117 31.7507 10.92 31.9941 10.92C32.2375 10.92 32.4348 11.117 32.4348 11.36Z"/>
<path d="M1.89256 11.36C1.89256 11.603 1.69524 11.8 1.45184 11.8C1.20843 11.8 1.01111 11.603 1.01111 11.36C1.01111 11.117 1.20843 10.92 1.45184 10.92C1.69524 10.92 1.89256 11.117 1.89256 11.36Z"/>
<path fill-rule="evenodd" clip-rule="evenodd" d="M7.26138 7.32C7.52692 7.32 7.74217 7.1051 7.74217 6.84C7.74217 6.5749 7.52692 6.36 7.26138 6.36C6.99585 6.36 6.78059 6.5749 6.78059 6.84C6.78059 7.1051 6.99585 7.32 7.26138 7.32ZM7.26138 7.96C7.88096 7.96 8.38323 7.45856 8.38323 6.84C8.38323 6.22144 7.88096 5.72 7.26138 5.72C6.64181 5.72 6.13954 6.22144 6.13954 6.84C6.13954 7.45856 6.64181 7.96 7.26138 7.96Z"/>
<path fill-rule="evenodd" clip-rule="evenodd" d="M16.7169 2.6C16.9825 2.6 17.1977 2.3851 17.1977 2.12C17.1977 1.8549 16.9825 1.64 16.7169 1.64C16.4514 1.64 16.2361 1.8549 16.2361 2.12C16.2361 2.3851 16.4514 2.6 16.7169 2.6ZM16.7169 3.24C17.3365 3.24 17.8388 2.73856 17.8388 2.12C17.8388 1.50144 17.3365 1 16.7169 1C16.0973 1 15.5951 1.50144 15.5951 2.12C15.5951 2.73856 16.0973 3.24 16.7169 3.24Z"/>
<path fill-rule="evenodd" clip-rule="evenodd" d="M14.0726 4.28C14.3381 4.28 14.5534 4.0651 14.5534 3.8C14.5534 3.5349 14.3381 3.32 14.0726 3.32C13.807 3.32 13.5918 3.5349 13.5918 3.8C13.5918 4.0651 13.807 4.28 14.0726 4.28ZM14.0726 4.92C14.6922 4.92 15.1944 4.41856 15.1944 3.8C15.1944 3.18144 14.6922 2.68 14.0726 2.68C13.453 2.68 12.9507 3.18144 12.9507 3.8C12.9507 4.41856 13.453 4.92 14.0726 4.92Z"/>
<path fill-rule="evenodd" clip-rule="evenodd" d="M19.3613 4.28C19.6268 4.28 19.8421 4.0651 19.8421 3.8C19.8421 3.5349 19.6268 3.32 19.3613 3.32C19.0957 3.32 18.8805 3.5349 18.8805 3.8C18.8805 4.0651 19.0957 4.28 19.3613 4.28ZM19.3613 4.92C19.9808 4.92 20.4831 4.41856 20.4831 3.8C20.4831 3.18144 19.9808 2.68 19.3613 2.68C18.7417 2.68 18.2394 3.18144 18.2394 3.8C18.2394 4.41856 18.7417 4.92 19.3613 4.92Z"/>
<path fill-rule="evenodd" clip-rule="evenodd" d="M26.1725 7.32C26.438 7.32 26.6532 7.1051 26.6532 6.84C26.6532 6.5749 26.438 6.36 26.1725 6.36C25.9069 6.36 25.6917 6.5749 25.6917 6.84C25.6917 7.1051 25.9069 7.32 26.1725 7.32ZM26.1725 7.96C26.792 7.96 27.2943 7.45856 27.2943 6.84C27.2943 6.22144 26.792 5.72 26.1725 5.72C25.5529 5.72 25.0506 6.22144 25.0506 6.84C25.0506 7.45856 25.5529 7.96 26.1725 7.96Z"/>
<path fill-rule="evenodd" clip-rule="evenodd" d="M22.8871 31.16C23.1526 31.16 23.3679 30.9451 23.3679 30.68C23.3679 30.4149 23.1526 30.2 22.8871 30.2C22.6215 30.2 22.4063 30.4149 22.4063 30.68C22.4063 30.9451 22.6215 31.16 22.8871 31.16ZM22.8871 31.8C23.5066 31.8 24.0089 31.2986 24.0089 30.68C24.0089 30.0614 23.5066 29.56 22.8871 29.56C22.2675 29.56 21.7652 30.0614 21.7652 30.68C21.7652 31.2986 22.2675 31.8 22.8871 31.8Z"/>
<path fill-rule="evenodd" clip-rule="evenodd" d="M5.41835 31.16C5.68389 31.16 5.89914 30.9451 5.89914 30.68C5.89914 30.4149 5.68389 30.2 5.41835 30.2C5.15282 30.2 4.93756 30.4149 4.93756 30.68C4.93756 30.9451 5.15282 31.16 5.41835 31.16ZM5.41835 31.8C6.03793 31.8 6.5402 31.2986 6.5402 30.68C6.5402 30.0614 6.03793 29.56 5.41835 29.56C4.79878 29.56 4.29651 30.0614 4.29651 30.68C4.29651 31.2986 4.79878 31.8 5.41835 31.8Z"/>
<path fill-rule="evenodd" clip-rule="evenodd" d="M28.0155 31.16C28.281 31.16 28.4963 30.9451 28.4963 30.68C28.4963 30.4149 28.281 30.2 28.0155 30.2C27.75 30.2 27.5347 30.4149 27.5347 30.68C27.5347 30.9451 27.75 31.16 28.0155 31.16ZM28.0155 31.8C28.6351 31.8 29.1373 31.2986 29.1373 30.68C29.1373 30.0614 28.6351 29.56 28.0155 29.56C27.3959 29.56 26.8936 30.0614 26.8936 30.68C26.8936 31.2986 27.3959 31.8 28.0155 31.8Z"/>
<path fill-rule="evenodd" clip-rule="evenodd" d="M10.5468 31.16C10.8123 31.16 11.0276 30.9451 11.0276 30.68C11.0276 30.4149 10.8123 30.2 10.5468 30.2C10.2812 30.2 10.066 30.4149 10.066 30.68C10.066 30.9451 10.2812 31.16 10.5468 31.16ZM10.5468 31.8C11.1664 31.8 11.6686 31.2986 11.6686 30.68C11.6686 30.0614 11.1664 29.56 10.5468 29.56C9.92721 29.56 9.42494 30.0614 9.42494 30.68C9.42494 31.2986 9.92721 31.8 10.5468 31.8Z"/>
</mask>
<path fill-rule="evenodd" clip-rule="evenodd" d="M13.6635 4.12C13.752 4.27306 13.6995 4.46877 13.5462 4.55713L10.3754 6.38476V13.6953L16.7169 17.3505L23.0584 13.6953V6.38476L19.8876 4.55713C19.7343 4.46877 19.6818 4.27306 19.7703 4.12C19.8588 3.96695 20.0549 3.91451 20.2082 4.00288L23.6994 6.01525V14.0648L16.7169 18.0895L9.73435 14.0648V6.01525L13.2256 4.00288C13.3789 3.91451 13.575 3.96695 13.6635 4.12Z" fill="url(#paint0_linear_102_16)" style=""/>
<path fill-rule="evenodd" clip-rule="evenodd" d="M25.7288 7.08C25.8174 7.23306 25.7648 7.42877 25.6115 7.51713L19.1098 11.2648V18.5753L25.4513 22.2305L31.7927 18.5753V11.36H32.4338V18.9448L25.4513 22.9695L18.4687 18.9448V10.8953L25.291 6.96288C25.4443 6.87451 25.6403 6.92695 25.7288 7.08Z" fill="url(#paint1_linear_102_16)" style=""/>
<path fill-rule="evenodd" clip-rule="evenodd" d="M25.4513 16.6305L32.4338 20.6553V28.7048L28.9425 30.7171C28.7892 30.8055 28.5932 30.7531 28.5047 30.6C28.4162 30.4469 28.4687 30.2512 28.622 30.1629L31.7927 28.3352V21.0248L25.4513 17.3695L19.1098 21.0248V28.3352L22.2805 30.1629C22.4338 30.2512 22.4863 30.4469 22.3978 30.6C22.3093 30.7531 22.1133 30.8055 21.96 30.7171L18.4687 28.7048V20.6553L25.4513 16.6305Z" fill="url(#paint2_linear_102_16)" style=""/>
<path fill-rule="evenodd" clip-rule="evenodd" d="M7.98255 16.6305L14.9651 20.6553V28.7048L11.4738 30.7171C11.3205 30.8055 11.1245 30.7531 11.036 30.6C10.9475 30.4469 11 30.2512 11.1533 30.1629L14.324 28.3352V21.0248L7.98255 17.3695L1.64105 21.0248V28.3352L4.8118 30.1629C4.96511 30.2512 5.01763 30.4469 4.92912 30.6C4.84061 30.7531 4.64458 30.8055 4.49127 30.7171L1 28.7048V20.6553L7.98255 16.6305Z" fill="url(#paint3_linear_102_16)" style=""/>
<path fill-rule="evenodd" clip-rule="evenodd" d="M7.705 7.08C7.61649 7.23306 7.66902 7.42877 7.82232 7.51713L14.3241 11.2648V18.5753L7.98259 22.2305L1.64109 18.5753V11.36H1.00004V18.9448L7.98259 22.9695L14.9651 18.9448V10.8953L8.14285 6.96288C7.98954 6.87451 7.79351 6.92695 7.705 7.08Z" fill="url(#paint4_linear_102_16)" style=""/>
<path d="M16.3964 3C16.3964 2.82327 16.5399 2.68 16.7169 2.68C16.8939 2.68 17.0374 2.82327 17.0374 3V37H16.3964V3Z" fill="url(#paint5_linear_102_16)" style=""/>
<path fill-rule="evenodd" clip-rule="evenodd" d="M14.9661 25.8H14.325V37H14.9661V25.8Z" fill="url(#paint6_linear_102_16)" style=""/>
<path fill-rule="evenodd" clip-rule="evenodd" d="M19.1096 25.8H18.4685V37H19.1096V25.8Z" fill="url(#paint7_linear_102_16)" style=""/>
<path d="M32.2593 28.28L31.9437 28.837L1.37142 11.5685L1.68709 11.0115L32.2593 28.28Z" fill="url(#paint8_linear_102_16)" style=""/>
<path d="M1.56092 28.84L1.24525 28.283L31.7917 11.029L32.1074 11.5861L1.56092 28.84Z" fill="url(#paint9_linear_102_16)" style=""/>
<path d="M32.4348 11.36C32.4348 11.603 32.2375 11.8 31.9941 11.8C31.7507 11.8 31.5533 11.603 31.5533 11.36C31.5533 11.117 31.7507 10.92 31.9941 10.92C32.2375 10.92 32.4348 11.117 32.4348 11.36Z" fill="url(#paint10_linear_102_16)" style=""/>
<path d="M1.89256 11.36C1.89256 11.603 1.69524 11.8 1.45184 11.8C1.20843 11.8 1.01111 11.603 1.01111 11.36C1.01111 11.117 1.20843 10.92 1.45184 10.92C1.69524 10.92 1.89256 11.117 1.89256 11.36Z" fill="url(#paint11_linear_102_16)" style=""/>
<path fill-rule="evenodd" clip-rule="evenodd" d="M7.26138 7.32C7.52692 7.32 7.74217 7.1051 7.74217 6.84C7.74217 6.5749 7.52692 6.36 7.26138 6.36C6.99585 6.36 6.78059 6.5749 6.78059 6.84C6.78059 7.1051 6.99585 7.32 7.26138 7.32ZM7.26138 7.96C7.88096 7.96 8.38323 7.45856 8.38323 6.84C8.38323 6.22144 7.88096 5.72 7.26138 5.72C6.64181 5.72 6.13954 6.22144 6.13954 6.84C6.13954 7.45856 6.64181 7.96 7.26138 7.96Z" fill="url(#paint12_linear_102_16)" style=""/>
<path fill-rule="evenodd" clip-rule="evenodd" d="M16.7169 2.6C16.9825 2.6 17.1977 2.3851 17.1977 2.12C17.1977 1.8549 16.9825 1.64 16.7169 1.64C16.4514 1.64 16.2361 1.8549 16.2361 2.12C16.2361 2.3851 16.4514 2.6 16.7169 2.6ZM16.7169 3.24C17.3365 3.24 17.8388 2.73856 17.8388 2.12C17.8388 1.50144 17.3365 1 16.7169 1C16.0973 1 15.5951 1.50144 15.5951 2.12C15.5951 2.73856 16.0973 3.24 16.7169 3.24Z" fill="url(#paint13_linear_102_16)" style=""/>
<path fill-rule="evenodd" clip-rule="evenodd" d="M14.0726 4.28C14.3381 4.28 14.5534 4.0651 14.5534 3.8C14.5534 3.5349 14.3381 3.32 14.0726 3.32C13.807 3.32 13.5918 3.5349 13.5918 3.8C13.5918 4.0651 13.807 4.28 14.0726 4.28ZM14.0726 4.92C14.6922 4.92 15.1944 4.41856 15.1944 3.8C15.1944 3.18144 14.6922 2.68 14.0726 2.68C13.453 2.68 12.9507 3.18144 12.9507 3.8C12.9507 4.41856 13.453 4.92 14.0726 4.92Z" fill="url(#paint14_linear_102_16)" style=""/>
<path fill-rule="evenodd" clip-rule="evenodd" d="M19.3613 4.28C19.6268 4.28 19.8421 4.0651 19.8421 3.8C19.8421 3.5349 19.6268 3.32 19.3613 3.32C19.0957 3.32 18.8805 3.5349 18.8805 3.8C18.8805 4.0651 19.0957 4.28 19.3613 4.28ZM19.3613 4.92C19.9808 4.92 20.4831 4.41856 20.4831 3.8C20.4831 3.18144 19.9808 2.68 19.3613 2.68C18.7417 2.68 18.2394 3.18144 18.2394 3.8C18.2394 4.41856 18.7417 4.92 19.3613 4.92Z" fill="url(#paint15_linear_102_16)" style=""/>
<path fill-rule="evenodd" clip-rule="evenodd" d="M26.1725 7.32C26.438 7.32 26.6532 7.1051 26.6532 6.84C26.6532 6.5749 26.438 6.36 26.1725 6.36C25.9069 6.36 25.6917 6.5749 25.6917 6.84C25.6917 7.1051 25.9069 7.32 26.1725 7.32ZM26.1725 7.96C26.792 7.96 27.2943 7.45856 27.2943 6.84C27.2943 6.22144 26.792 5.72 26.1725 5.72C25.5529 5.72 25.0506 6.22144 25.0506 6.84C25.0506 7.45856 25.5529 7.96 26.1725 7.96Z" fill="url(#paint16_linear_102_16)" style=""/>
<path fill-rule="evenodd" clip-rule="evenodd" d="M22.8871 31.16C23.1526 31.16 23.3679 30.9451 23.3679 30.68C23.3679 30.4149 23.1526 30.2 22.8871 30.2C22.6215 30.2 22.4063 30.4149 22.4063 30.68C22.4063 30.9451 22.6215 31.16 22.8871 31.16ZM22.8871 31.8C23.5066 31.8 24.0089 31.2986 24.0089 30.68C24.0089 30.0614 23.5066 29.56 22.8871 29.56C22.2675 29.56 21.7652 30.0614 21.7652 30.68C21.7652 31.2986 22.2675 31.8 22.8871 31.8Z" fill="url(#paint17_linear_102_16)" style=""/>
<path fill-rule="evenodd" clip-rule="evenodd" d="M5.41835 31.16C5.68389 31.16 5.89914 30.9451 5.89914 30.68C5.89914 30.4149 5.68389 30.2 5.41835 30.2C5.15282 30.2 4.93756 30.4149 4.93756 30.68C4.93756 30.9451 5.15282 31.16 5.41835 31.16ZM5.41835 31.8C6.03793 31.8 6.5402 31.2986 6.5402 30.68C6.5402 30.0614 6.03793 29.56 5.41835 29.56C4.79878 29.56 4.29651 30.0614 4.29651 30.68C4.29651 31.2986 4.79878 31.8 5.41835 31.8Z" fill="url(#paint18_linear_102_16)" style=""/>
<path fill-rule="evenodd" clip-rule="evenodd" d="M28.0155 31.16C28.281 31.16 28.4963 30.9451 28.4963 30.68C28.4963 30.4149 28.281 30.2 28.0155 30.2C27.75 30.2 27.5347 30.4149 27.5347 30.68C27.5347 30.9451 27.75 31.16 28.0155 31.16ZM28.0155 31.8C28.6351 31.8 29.1373 31.2986 29.1373 30.68C29.1373 30.0614 28.6351 29.56 28.0155 29.56C27.3959 29.56 26.8936 30.0614 26.8936 30.68C26.8936 31.2986 27.3959 31.8 28.0155 31.8Z" fill="url(#paint19_linear_102_16)" style=""/>
<path fill-rule="evenodd" clip-rule="evenodd" d="M10.5468 31.16C10.8123 31.16 11.0276 30.9451 11.0276 30.68C11.0276 30.4149 10.8123 30.2 10.5468 30.2C10.2812 30.2 10.066 30.4149 10.066 30.68C10.066 30.9451 10.2812 31.16 10.5468 31.16ZM10.5468 31.8C11.1664 31.8 11.6686 31.2986 11.6686 30.68C11.6686 30.0614 11.1664 29.56 10.5468 29.56C9.92721 29.56 9.42494 30.0614 9.42494 30.68C9.42494 31.2986 9.92721 31.8 10.5468 31.8Z" fill="url(#paint20_linear_102_16)" style=""/>
<path fill-rule="evenodd" clip-rule="evenodd" d="M13.6635 4.12C13.752 4.27306 13.6995 4.46877 13.5462 4.55713L10.3754 6.38476V13.6953L16.7169 17.3505L23.0584 13.6953V6.38476L19.8876 4.55713C19.7343 4.46877 19.6818 4.27306 19.7703 4.12C19.8588 3.96695 20.0549 3.91451 20.2082 4.00288L23.6994 6.01525V14.0648L16.7169 18.0895L9.73435 14.0648V6.01525L13.2256 4.00288C13.3789 3.91451 13.575 3.96695 13.6635 4.12Z" stroke="url(#paint21_linear_102_16)" style="" stroke-width="0.42" mask="url(#path-1-outside-1_102_16)"/>
<path fill-rule="evenodd" clip-rule="evenodd" d="M25.7288 7.08C25.8174 7.23306 25.7648 7.42877 25.6115 7.51713L19.1098 11.2648V18.5753L25.4513 22.2305L31.7927 18.5753V11.36H32.4338V18.9448L25.4513 22.9695L18.4687 18.9448V10.8953L25.291 6.96288C25.4443 6.87451 25.6403 6.92695 25.7288 7.08Z" stroke="url(#paint22_linear_102_16)" style="" stroke-width="0.42" mask="url(#path-1-outside-1_102_16)"/>
<path fill-rule="evenodd" clip-rule="evenodd" d="M25.4513 16.6305L32.4338 20.6553V28.7048L28.9425 30.7171C28.7892 30.8055 28.5932 30.7531 28.5047 30.6C28.4162 30.4469 28.4687 30.2512 28.622 30.1629L31.7927 28.3352V21.0248L25.4513 17.3695L19.1098 21.0248V28.3352L22.2805 30.1629C22.4338 30.2512 22.4863 30.4469 22.3978 30.6C22.3093 30.7531 22.1133 30.8055 21.96 30.7171L18.4687 28.7048V20.6553L25.4513 16.6305Z" stroke="url(#paint23_linear_102_16)" style="" stroke-width="0.42" mask="url(#path-1-outside-1_102_16)"/>
<path fill-rule="evenodd" clip-rule="evenodd" d="M7.98255 16.6305L14.9651 20.6553V28.7048L11.4738 30.7171C11.3205 30.8055 11.1245 30.7531 11.036 30.6C10.9475 30.4469 11 30.2512 11.1533 30.1629L14.324 28.3352V21.0248L7.98255 17.3695L1.64105 21.0248V28.3352L4.8118 30.1629C4.96511 30.2512 5.01763 30.4469 4.92912 30.6C4.84061 30.7531 4.64458 30.8055 4.49127 30.7171L1 28.7048V20.6553L7.98255 16.6305Z" stroke="url(#paint24_linear_102_16)" style="" stroke-width="0.42" mask="url(#path-1-outside-1_102_16)"/>
<path fill-rule="evenodd" clip-rule="evenodd" d="M7.705 7.08C7.61649 7.23306 7.66902 7.42877 7.82232 7.51713L14.3241 11.2648V18.5753L7.98259 22.2305L1.64109 18.5753V11.36H1.00004V18.9448L7.98259 22.9695L14.9651 18.9448V10.8953L8.14285 6.96288C7.98954 6.87451 7.79351 6.92695 7.705 7.08Z" stroke="url(#paint25_linear_102_16)" style="" stroke-width="0.42" mask="url(#path-1-outside-1_102_16)"/>
<path d="M16.3964 3C16.3964 2.82327 16.5399 2.68 16.7169 2.68C16.8939 2.68 17.0374 2.82327 17.0374 3V37H16.3964V3Z" stroke="url(#paint26_linear_102_16)" style="" stroke-width="0.42" mask="url(#path-1-outside-1_102_16)"/>
<path fill-rule="evenodd" clip-rule="evenodd" d="M14.9661 25.8H14.325V37H14.9661V25.8Z" stroke="url(#paint27_linear_102_16)" style="" stroke-width="0.42" mask="url(#path-1-outside-1_102_16)"/>
<path fill-rule="evenodd" clip-rule="evenodd" d="M19.1096 25.8H18.4685V37H19.1096V25.8Z" stroke="url(#paint28_linear_102_16)" style="" stroke-width="0.42" mask="url(#path-1-outside-1_102_16)"/>
<path d="M32.2593 28.28L31.9437 28.837L1.37142 11.5685L1.68709 11.0115L32.2593 28.28Z" stroke="url(#paint29_linear_102_16)" style="" stroke-width="0.42" mask="url(#path-1-outside-1_102_16)"/>
<path d="M1.56092 28.84L1.24525 28.283L31.7917 11.029L32.1074 11.5861L1.56092 28.84Z" stroke="url(#paint30_linear_102_16)" style="" stroke-width="0.42" mask="url(#path-1-outside-1_102_16)"/>
<path d="M32.4348 11.36C32.4348 11.603 32.2375 11.8 31.9941 11.8C31.7507 11.8 31.5533 11.603 31.5533 11.36C31.5533 11.117 31.7507 10.92 31.9941 10.92C32.2375 10.92 32.4348 11.117 32.4348 11.36Z" stroke="url(#paint31_linear_102_16)" style="" stroke-width="0.42" mask="url(#path-1-outside-1_102_16)"/>
<path d="M1.89256 11.36C1.89256 11.603 1.69524 11.8 1.45184 11.8C1.20843 11.8 1.01111 11.603 1.01111 11.36C1.01111 11.117 1.20843 10.92 1.45184 10.92C1.69524 10.92 1.89256 11.117 1.89256 11.36Z" stroke="url(#paint32_linear_102_16)" style="" stroke-width="0.42" mask="url(#path-1-outside-1_102_16)"/>
<path fill-rule="evenodd" clip-rule="evenodd" d="M7.26138 7.32C7.52692 7.32 7.74217 7.1051 7.74217 6.84C7.74217 6.5749 7.52692 6.36 7.26138 6.36C6.99585 6.36 6.78059 6.5749 6.78059 6.84C6.78059 7.1051 6.99585 7.32 7.26138 7.32ZM7.26138 7.96C7.88096 7.96 8.38323 7.45856 8.38323 6.84C8.38323 6.22144 7.88096 5.72 7.26138 5.72C6.64181 5.72 6.13954 6.22144 6.13954 6.84C6.13954 7.45856 6.64181 7.96 7.26138 7.96Z" stroke="url(#paint33_linear_102_16)" style="" stroke-width="0.42" mask="url(#path-1-outside-1_102_16)"/>
<path fill-rule="evenodd" clip-rule="evenodd" d="M16.7169 2.6C16.9825 2.6 17.1977 2.3851 17.1977 2.12C17.1977 1.8549 16.9825 1.64 16.7169 1.64C16.4514 1.64 16.2361 1.8549 16.2361 2.12C16.2361 2.3851 16.4514 2.6 16.7169 2.6ZM16.7169 3.24C17.3365 3.24 17.8388 2.73856 17.8388 2.12C17.8388 1.50144 17.3365 1 16.7169 1C16.0973 1 15.5951 1.50144 15.5951 2.12C15.5951 2.73856 16.0973 3.24 16.7169 3.24Z" stroke="url(#paint34_linear_102_16)" style="" stroke-width="0.42" mask="url(#path-1-outside-1_102_16)"/>
<path fill-rule="evenodd" clip-rule="evenodd" d="M14.0726 4.28C14.3381 4.28 14.5534 4.0651 14.5534 3.8C14.5534 3.5349 14.3381 3.32 14.0726 3.32C13.807 3.32 13.5918 3.5349 13.5918 3.8C13.5918 4.0651 13.807 4.28 14.0726 4.28ZM14.0726 4.92C14.6922 4.92 15.1944 4.41856 15.1944 3.8C15.1944 3.18144 14.6922 2.68 14.0726 2.68C13.453 2.68 12.9507 3.18144 12.9507 3.8C12.9507 4.41856 13.453 4.92 14.0726 4.92Z" stroke="url(#paint35_linear_102_16)" style="" stroke-width="0.42" mask="url(#path-1-outside-1_102_16)"/>
<path fill-rule="evenodd" clip-rule="evenodd" d="M19.3613 4.28C19.6268 4.28 19.8421 4.0651 19.8421 3.8C19.8421 3.5349 19.6268 3.32 19.3613 3.32C19.0957 3.32 18.8805 3.5349 18.8805 3.8C18.8805 4.0651 19.0957 4.28 19.3613 4.28ZM19.3613 4.92C19.9808 4.92 20.4831 4.41856 20.4831 3.8C20.4831 3.18144 19.9808 2.68 19.3613 2.68C18.7417 2.68 18.2394 3.18144 18.2394 3.8C18.2394 4.41856 18.7417 4.92 19.3613 4.92Z" stroke="url(#paint36_linear_102_16)" style="" stroke-width="0.42" mask="url(#path-1-outside-1_102_16)"/>
<path fill-rule="evenodd" clip-rule="evenodd" d="M26.1725 7.32C26.438 7.32 26.6532 7.1051 26.6532 6.84C26.6532 6.5749 26.438 6.36 26.1725 6.36C25.9069 6.36 25.6917 6.5749 25.6917 6.84C25.6917 7.1051 25.9069 7.32 26.1725 7.32ZM26.1725 7.96C26.792 7.96 27.2943 7.45856 27.2943 6.84C27.2943 6.22144 26.792 5.72 26.1725 5.72C25.5529 5.72 25.0506 6.22144 25.0506 6.84C25.0506 7.45856 25.5529 7.96 26.1725 7.96Z" stroke="url(#paint37_linear_102_16)" style="" stroke-width="0.42" mask="url(#path-1-outside-1_102_16)"/>
<path fill-rule="evenodd" clip-rule="evenodd" d="M22.8871 31.16C23.1526 31.16 23.3679 30.9451 23.3679 30.68C23.3679 30.4149 23.1526 30.2 22.8871 30.2C22.6215 30.2 22.4063 30.4149 22.4063 30.68C22.4063 30.9451 22.6215 31.16 22.8871 31.16ZM22.8871 31.8C23.5066 31.8 24.0089 31.2986 24.0089 30.68C24.0089 30.0614 23.5066 29.56 22.8871 29.56C22.2675 29.56 21.7652 30.0614 21.7652 30.68C21.7652 31.2986 22.2675 31.8 22.8871 31.8Z" stroke="url(#paint38_linear_102_16)" style="" stroke-width="0.42" mask="url(#path-1-outside-1_102_16)"/>
<path fill-rule="evenodd" clip-rule="evenodd" d="M5.41835 31.16C5.68389 31.16 5.89914 30.9451 5.89914 30.68C5.89914 30.4149 5.68389 30.2 5.41835 30.2C5.15282 30.2 4.93756 30.4149 4.93756 30.68C4.93756 30.9451 5.15282 31.16 5.41835 31.16ZM5.41835 31.8C6.03793 31.8 6.5402 31.2986 6.5402 30.68C6.5402 30.0614 6.03793 29.56 5.41835 29.56C4.79878 29.56 4.29651 30.0614 4.29651 30.68C4.29651 31.2986 4.79878 31.8 5.41835 31.8Z" stroke="url(#paint39_linear_102_16)" style="" stroke-width="0.42" mask="url(#path-1-outside-1_102_16)"/>
<path fill-rule="evenodd" clip-rule="evenodd" d="M28.0155 31.16C28.281 31.16 28.4963 30.9451 28.4963 30.68C28.4963 30.4149 28.281 30.2 28.0155 30.2C27.75 30.2 27.5347 30.4149 27.5347 30.68C27.5347 30.9451 27.75 31.16 28.0155 31.16ZM28.0155 31.8C28.6351 31.8 29.1373 31.2986 29.1373 30.68C29.1373 30.0614 28.6351 29.56 28.0155 29.56C27.3959 29.56 26.8936 30.0614 26.8936 30.68C26.8936 31.2986 27.3959 31.8 28.0155 31.8Z" stroke="url(#paint40_linear_102_16)" style="" stroke-width="0.42" mask="url(#path-1-outside-1_102_16)"/>
<path fill-rule="evenodd" clip-rule="evenodd" d="M10.5468 31.16C10.8123 31.16 11.0276 30.9451 11.0276 30.68C11.0276 30.4149 10.8123 30.2 10.5468 30.2C10.2812 30.2 10.066 30.4149 10.066 30.68C10.066 30.9451 10.2812 31.16 10.5468 31.16ZM10.5468 31.8C11.1664 31.8 11.6686 31.2986 11.6686 30.68C11.6686 30.0614 11.1664 29.56 10.5468 29.56C9.92721 29.56 9.42494 30.0614 9.42494 30.68C9.42494 31.2986 9.92721 31.8 10.5468 31.8Z" stroke="url(#paint41_linear_102_16)" style="" stroke-width="0.42" mask="url(#path-1-outside-1_102_16)"/>
<path d="M41.9748 27.5V12.6H47.3948C48.3948 12.6 49.2748 12.7867 50.0348 13.16C50.7948 13.52 51.3881 14.0533 51.8148 14.76C52.2548 15.4533 52.4748 16.2867 52.4748 17.26C52.4748 18.2867 52.2148 19.1667 51.6948 19.9C51.1881 20.6333 50.5015 21.1667 49.6348 21.5L53.0748 27.5H50.3948L46.7348 21L48.2748 21.9H44.3348V27.5H41.9748ZM44.3348 19.8H47.4348C47.9815 19.8 48.4548 19.6933 48.8548 19.48C49.2548 19.2667 49.5615 18.9733 49.7748 18.6C50.0015 18.2133 50.1148 17.76 50.1148 17.24C50.1148 16.72 50.0015 16.2733 49.7748 15.9C49.5615 15.5133 49.2548 15.22 48.8548 15.02C48.4548 14.8067 47.9815 14.7 47.4348 14.7H44.3348V19.8ZM59.4553 27.74C58.4153 27.74 57.462 27.4933 56.5953 27C55.742 26.5067 55.0619 25.8333 54.5553 24.98C54.0486 24.1267 53.7953 23.16 53.7953 22.08C53.7953 20.9867 54.0486 20.02 54.5553 19.18C55.0619 18.3267 55.742 17.66 56.5953 17.18C57.4486 16.6867 58.402 16.44 59.4553 16.44C60.522 16.44 61.4753 16.6867 62.3153 17.18C63.1686 17.66 63.842 18.3267 64.3353 19.18C64.842 20.02 65.0953 20.9867 65.0953 22.08C65.0953 23.1733 64.842 24.1467 64.3353 25C63.8286 25.8533 63.1486 26.5267 62.2953 27.02C61.442 27.5 60.4953 27.74 59.4553 27.74ZM59.4553 25.64C60.0953 25.64 60.662 25.4867 61.1553 25.18C61.6486 24.8733 62.0353 24.4533 62.3153 23.92C62.6086 23.3733 62.7553 22.76 62.7553 22.08C62.7553 21.4 62.6086 20.7933 62.3153 20.26C62.0353 19.7267 61.6486 19.3067 61.1553 19C60.662 18.6933 60.0953 18.54 59.4553 18.54C58.8286 18.54 58.2619 18.6933 57.7553 19C57.262 19.3067 56.8686 19.7267 56.5753 20.26C56.2953 20.7933 56.1553 21.4 56.1553 22.08C56.1553 22.76 56.2953 23.3733 56.5753 23.92C56.8686 24.4533 57.262 24.8733 57.7553 25.18C58.2619 25.4867 58.8286 25.64 59.4553 25.64ZM67.3017 27.5V12.36H69.5617V27.5H67.3017ZM77.284 27.74C76.204 27.74 75.244 27.4933 74.404 27C73.5774 26.4933 72.9307 25.8133 72.464 24.96C71.9974 24.0933 71.764 23.1267 71.764 22.06C71.764 20.9667 71.9974 20 72.464 19.16C72.944 18.32 73.584 17.66 74.384 17.18C75.184 16.6867 76.0907 16.44 77.104 16.44C77.9174 16.44 78.644 16.58 79.284 16.86C79.924 17.14 80.464 17.5267 80.904 18.02C81.344 18.5 81.6774 19.0533 81.904 19.68C82.144 20.3067 82.264 20.9733 82.264 21.68C82.264 21.8533 82.2574 22.0333 82.244 22.22C82.2307 22.4067 82.204 22.58 82.164 22.74H73.544V20.94H80.884L79.804 21.76C79.9374 21.1067 79.8907 20.5267 79.664 20.02C79.4507 19.5 79.1174 19.0933 78.664 18.8C78.224 18.4933 77.704 18.34 77.104 18.34C76.504 18.34 75.9707 18.4933 75.504 18.8C75.0374 19.0933 74.6774 19.52 74.424 20.08C74.1707 20.6267 74.0707 21.2933 74.124 22.08C74.0574 22.8133 74.1574 23.4533 74.424 24C74.704 24.5467 75.0907 24.9733 75.584 25.28C76.0907 25.5867 76.664 25.74 77.304 25.74C77.9574 25.74 78.5107 25.5933 78.964 25.3C79.4307 25.0067 79.7974 24.6267 80.064 24.16L81.904 25.06C81.6907 25.5667 81.3574 26.0267 80.904 26.44C80.464 26.84 79.9307 27.16 79.304 27.4C78.6907 27.6267 78.0174 27.74 77.284 27.74ZM89.6097 27.74C88.5297 27.74 87.5697 27.4933 86.7297 27C85.903 26.4933 85.243 25.8133 84.7497 24.96C84.2697 24.1067 84.0297 23.14 84.0297 22.06C84.0297 20.9933 84.2697 20.0333 84.7497 19.18C85.2297 18.3267 85.8897 17.66 86.7297 17.18C87.5697 16.6867 88.5297 16.44 89.6097 16.44C90.343 16.44 91.0297 16.5733 91.6697 16.84C92.3097 17.0933 92.863 17.4467 93.3297 17.9C93.8097 18.3533 94.163 18.88 94.3897 19.48L92.4097 20.4C92.183 19.84 91.8163 19.3933 91.3097 19.06C90.8163 18.7133 90.2497 18.54 89.6097 18.54C88.9963 18.54 88.443 18.6933 87.9497 19C87.4697 19.2933 87.0897 19.7133 86.8097 20.26C86.5297 20.7933 86.3897 21.4 86.3897 22.08C86.3897 22.76 86.5297 23.3733 86.8097 23.92C87.0897 24.4533 87.4697 24.8733 87.9497 25.18C88.443 25.4867 88.9963 25.64 89.6097 25.64C90.263 25.64 90.8297 25.4733 91.3097 25.14C91.803 24.7933 92.1697 24.3333 92.4097 23.76L94.3897 24.7C94.1763 25.2733 93.8297 25.7933 93.3497 26.26C92.883 26.7133 92.3297 27.0733 91.6897 27.34C91.0497 27.6067 90.3563 27.74 89.6097 27.74ZM96.5986 27.5V12.36H98.8586V18.8L98.4986 18.52C98.7652 17.84 99.1919 17.3267 99.7786 16.98C100.365 16.62 101.045 16.44 101.819 16.44C102.619 16.44 103.325 16.6133 103.939 16.96C104.552 17.3067 105.032 17.7867 105.379 18.4C105.725 19.0133 105.899 19.7133 105.899 20.5V27.5H103.659V21.12C103.659 20.5733 103.552 20.1133 103.339 19.74C103.139 19.3533 102.859 19.06 102.499 18.86C102.139 18.6467 101.725 18.54 101.259 18.54C100.805 18.54 100.392 18.6467 100.019 18.86C99.6586 19.06 99.3719 19.3533 99.1586 19.74C98.9586 20.1267 98.8586 20.5867 98.8586 21.12V27.5H96.5986ZM127.067 27.5V16.68H129.227V18.8L128.967 18.52C129.234 17.84 129.661 17.3267 130.247 16.98C130.834 16.62 131.514 16.44 132.287 16.44C133.087 16.44 133.794 16.6133 134.407 16.96C135.021 17.3067 135.501 17.7867 135.847 18.4C136.194 19.0133 136.367 19.72 136.367 20.52V27.5H134.127V21.12C134.127 20.5733 134.027 20.1133 133.827 19.74C133.627 19.3533 133.341 19.06 132.967 18.86C132.607 18.6467 132.194 18.54 131.727 18.54C131.261 18.54 130.841 18.6467 130.467 18.86C130.107 19.06 129.827 19.3533 129.627 19.74C129.427 20.1267 129.327 20.5867 129.327 21.12V27.5H127.067Z" fill="white" style="fill:white;fill-opacity:1;"/>
<path d="M107.217 27.5L112.457 12.6H115.377L120.617 27.5H118.097L116.957 24.16H110.897L109.737 27.5H107.217ZM111.577 22.06H116.237L113.597 14.26H114.257L111.577 22.06ZM122.165 27.5V16.68H124.425V27.5H122.165ZM122.165 15.2V12.6H124.425V15.2H122.165Z" fill="url(#paint42_linear_102_16)" style=""/>
<defs>
<linearGradient id="paint0_linear_102_16" x1="16.7174" y1="1" x2="16.7174" y2="37" gradientUnits="userSpaceOnUse">
<stop stop-color="#F67114" style="stop-color:#F67114;stop-color:color(display-p3 0.9647 0.4431 0.0784);stop-opacity:1;"/>
<stop offset="0.5" stop-color="#E21AEF" style="stop-color:#E21AEF;stop-color:color(display-p3 0.8863 0.1020 0.9373);stop-opacity:1;"/>
<stop offset="1" stop-color="#2A76EE" style="stop-color:#2A76EE;stop-color:color(display-p3 0.1647 0.4627 0.9333);stop-opacity:1;"/>
</linearGradient>
<linearGradient id="paint1_linear_102_16" x1="16.7174" y1="1" x2="16.7174" y2="37" gradientUnits="userSpaceOnUse">
<stop stop-color="#F67114" style="stop-color:#F67114;stop-color:color(display-p3 0.9647 0.4431 0.0784);stop-opacity:1;"/>
<stop offset="0.5" stop-color="#E21AEF" style="stop-color:#E21AEF;stop-color:color(display-p3 0.8863 0.1020 0.9373);stop-opacity:1;"/>
<stop offset="1" stop-color="#2A76EE" style="stop-color:#2A76EE;stop-color:color(display-p3 0.1647 0.4627 0.9333);stop-opacity:1;"/>
</linearGradient>
<linearGradient id="paint2_linear_102_16" x1="16.7174" y1="1" x2="16.7174" y2="37" gradientUnits="userSpaceOnUse">
<stop stop-color="#F67114" style="stop-color:#F67114;stop-color:color(display-p3 0.9647 0.4431 0.0784);stop-opacity:1;"/>
<stop offset="0.5" stop-color="#E21AEF" style="stop-color:#E21AEF;stop-color:color(display-p3 0.8863 0.1020 0.9373);stop-opacity:1;"/>
<stop offset="1" stop-color="#2A76EE" style="stop-color:#2A76EE;stop-color:color(display-p3 0.1647 0.4627 0.9333);stop-opacity:1;"/>
</linearGradient>
<linearGradient id="paint3_linear_102_16" x1="16.7174" y1="1" x2="16.7174" y2="37" gradientUnits="userSpaceOnUse">
<stop stop-color="#F67114" style="stop-color:#F67114;stop-color:color(display-p3 0.9647 0.4431 0.0784);stop-opacity:1;"/>
<stop offset="0.5" stop-color="#E21AEF" style="stop-color:#E21AEF;stop-color:color(display-p3 0.8863 0.1020 0.9373);stop-opacity:1;"/>
<stop offset="1" stop-color="#2A76EE" style="stop-color:#2A76EE;stop-color:color(display-p3 0.1647 0.4627 0.9333);stop-opacity:1;"/>
</linearGradient>
<linearGradient id="paint4_linear_102_16" x1="16.7174" y1="1" x2="16.7174" y2="37" gradientUnits="userSpaceOnUse">
<stop stop-color="#F67114" style="stop-color:#F67114;stop-color:color(display-p3 0.9647 0.4431 0.0784);stop-opacity:1;"/>
<stop offset="0.5" stop-color="#E21AEF" style="stop-color:#E21AEF;stop-color:color(display-p3 0.8863 0.1020 0.9373);stop-opacity:1;"/>
<stop offset="1" stop-color="#2A76EE" style="stop-color:#2A76EE;stop-color:color(display-p3 0.1647 0.4627 0.9333);stop-opacity:1;"/>
</linearGradient>
<linearGradient id="paint5_linear_102_16" x1="16.7174" y1="1" x2="16.7174" y2="37" gradientUnits="userSpaceOnUse">
<stop stop-color="#F67114" style="stop-color:#F67114;stop-color:color(display-p3 0.9647 0.4431 0.0784);stop-opacity:1;"/>
<stop offset="0.5" stop-color="#E21AEF" style="stop-color:#E21AEF;stop-color:color(display-p3 0.8863 0.1020 0.9373);stop-opacity:1;"/>
<stop offset="1" stop-color="#2A76EE" style="stop-color:#2A76EE;stop-color:color(display-p3 0.1647 0.4627 0.9333);stop-opacity:1;"/>
</linearGradient>
<linearGradient id="paint6_linear_102_16" x1="16.7174" y1="1" x2="16.7174" y2="37" gradientUnits="userSpaceOnUse">
<stop stop-color="#F67114" style="stop-color:#F67114;stop-color:color(display-p3 0.9647 0.4431 0.0784);stop-opacity:1;"/>
<stop offset="0.5" stop-color="#E21AEF" style="stop-color:#E21AEF;stop-color:color(display-p3 0.8863 0.1020 0.9373);stop-opacity:1;"/>
<stop offset="1" stop-color="#2A76EE" style="stop-color:#2A76EE;stop-color:color(display-p3 0.1647 0.4627 0.9333);stop-opacity:1;"/>
</linearGradient>
<linearGradient id="paint7_linear_102_16" x1="16.7174" y1="1" x2="16.7174" y2="37" gradientUnits="userSpaceOnUse">
<stop stop-color="#F67114" style="stop-color:#F67114;stop-color:color(display-p3 0.9647 0.4431 0.0784);stop-opacity:1;"/>
<stop offset="0.5" stop-color="#E21AEF" style="stop-color:#E21AEF;stop-color:color(display-p3 0.8863 0.1020 0.9373);stop-opacity:1;"/>
<stop offset="1" stop-color="#2A76EE" style="stop-color:#2A76EE;stop-color:color(display-p3 0.1647 0.4627 0.9333);stop-opacity:1;"/>
</linearGradient>
<linearGradient id="paint8_linear_102_16" x1="16.7174" y1="1" x2="16.7174" y2="37" gradientUnits="userSpaceOnUse">
<stop stop-color="#F67114" style="stop-color:#F67114;stop-color:color(display-p3 0.9647 0.4431 0.0784);stop-opacity:1;"/>
<stop offset="0.5" stop-color="#E21AEF" style="stop-color:#E21AEF;stop-color:color(display-p3 0.8863 0.1020 0.9373);stop-opacity:1;"/>
<stop offset="1" stop-color="#2A76EE" style="stop-color:#2A76EE;stop-color:color(display-p3 0.1647 0.4627 0.9333);stop-opacity:1;"/>
</linearGradient>
<linearGradient id="paint9_linear_102_16" x1="16.7174" y1="1" x2="16.7174" y2="37" gradientUnits="userSpaceOnUse">
<stop stop-color="#F67114" style="stop-color:#F67114;stop-color:color(display-p3 0.9647 0.4431 0.0784);stop-opacity:1;"/>
<stop offset="0.5" stop-color="#E21AEF" style="stop-color:#E21AEF;stop-color:color(display-p3 0.8863 0.1020 0.9373);stop-opacity:1;"/>
<stop offset="1" stop-color="#2A76EE" style="stop-color:#2A76EE;stop-color:color(display-p3 0.1647 0.4627 0.9333);stop-opacity:1;"/>
</linearGradient>
<linearGradient id="paint10_linear_102_16" x1="16.7174" y1="1" x2="16.7174" y2="37" gradientUnits="userSpaceOnUse">
<stop stop-color="#F67114" style="stop-color:#F67114;stop-color:color(display-p3 0.9647 0.4431 0.0784);stop-opacity:1;"/>
<stop offset="0.5" stop-color="#E21AEF" style="stop-color:#E21AEF;stop-color:color(display-p3 0.8863 0.1020 0.9373);stop-opacity:1;"/>
<stop offset="1" stop-color="#2A76EE" style="stop-color:#2A76EE;stop-color:color(display-p3 0.1647 0.4627 0.9333);stop-opacity:1;"/>
</linearGradient>
<linearGradient id="paint11_linear_102_16" x1="16.7174" y1="1" x2="16.7174" y2="37" gradientUnits="userSpaceOnUse">
<stop stop-color="#F67114" style="stop-color:#F67114;stop-color:color(display-p3 0.9647 0.4431 0.0784);stop-opacity:1;"/>
<stop offset="0.5" stop-color="#E21AEF" style="stop-color:#E21AEF;stop-color:color(display-p3 0.8863 0.1020 0.9373);stop-opacity:1;"/>
<stop offset="1" stop-color="#2A76EE" style="stop-color:#2A76EE;stop-color:color(display-p3 0.1647 0.4627 0.9333);stop-opacity:1;"/>
</linearGradient>
<linearGradient id="paint12_linear_102_16" x1="16.7174" y1="1" x2="16.7174" y2="37" gradientUnits="userSpaceOnUse">
<stop stop-color="#F67114" style="stop-color:#F67114;stop-color:color(display-p3 0.9647 0.4431 0.0784);stop-opacity:1;"/>
<stop offset="0.5" stop-color="#E21AEF" style="stop-color:#E21AEF;stop-color:color(display-p3 0.8863 0.1020 0.9373);stop-opacity:1;"/>
<stop offset="1" stop-color="#2A76EE" style="stop-color:#2A76EE;stop-color:color(display-p3 0.1647 0.4627 0.9333);stop-opacity:1;"/>
</linearGradient>
<linearGradient id="paint13_linear_102_16" x1="16.7174" y1="1" x2="16.7174" y2="37" gradientUnits="userSpaceOnUse">
<stop stop-color="#F67114" style="stop-color:#F67114;stop-color:color(display-p3 0.9647 0.4431 0.0784);stop-opacity:1;"/>
<stop offset="0.5" stop-color="#E21AEF" style="stop-color:#E21AEF;stop-color:color(display-p3 0.8863 0.1020 0.9373);stop-opacity:1;"/>
<stop offset="1" stop-color="#2A76EE" style="stop-color:#2A76EE;stop-color:color(display-p3 0.1647 0.4627 0.9333);stop-opacity:1;"/>
</linearGradient>
<linearGradient id="paint14_linear_102_16" x1="16.7174" y1="1" x2="16.7174" y2="37" gradientUnits="userSpaceOnUse">
<stop stop-color="#F67114" style="stop-color:#F67114;stop-color:color(display-p3 0.9647 0.4431 0.0784);stop-opacity:1;"/>
<stop offset="0.5" stop-color="#E21AEF" style="stop-color:#E21AEF;stop-color:color(display-p3 0.8863 0.1020 0.9373);stop-opacity:1;"/>
<stop offset="1" stop-color="#2A76EE" style="stop-color:#2A76EE;stop-color:color(display-p3 0.1647 0.4627 0.9333);stop-opacity:1;"/>
</linearGradient>
<linearGradient id="paint15_linear_102_16" x1="16.7174" y1="1" x2="16.7174" y2="37" gradientUnits="userSpaceOnUse">
<stop stop-color="#F67114" style="stop-color:#F67114;stop-color:color(display-p3 0.9647 0.4431 0.0784);stop-opacity:1;"/>
<stop offset="0.5" stop-color="#E21AEF" style="stop-color:#E21AEF;stop-color:color(display-p3 0.8863 0.1020 0.9373);stop-opacity:1;"/>
<stop offset="1" stop-color="#2A76EE" style="stop-color:#2A76EE;stop-color:color(display-p3 0.1647 0.4627 0.9333);stop-opacity:1;"/>
</linearGradient>
<linearGradient id="paint16_linear_102_16" x1="16.7174" y1="1" x2="16.7174" y2="37" gradientUnits="userSpaceOnUse">
<stop stop-color="#F67114" style="stop-color:#F67114;stop-color:color(display-p3 0.9647 0.4431 0.0784);stop-opacity:1;"/>
<stop offset="0.5" stop-color="#E21AEF" style="stop-color:#E21AEF;stop-color:color(display-p3 0.8863 0.1020 0.9373);stop-opacity:1;"/>
<stop offset="1" stop-color="#2A76EE" style="stop-color:#2A76EE;stop-color:color(display-p3 0.1647 0.4627 0.9333);stop-opacity:1;"/>
</linearGradient>
<linearGradient id="paint17_linear_102_16" x1="16.7174" y1="1" x2="16.7174" y2="37" gradientUnits="userSpaceOnUse">
<stop stop-color="#F67114" style="stop-color:#F67114;stop-color:color(display-p3 0.9647 0.4431 0.0784);stop-opacity:1;"/>
<stop offset="0.5" stop-color="#E21AEF" style="stop-color:#E21AEF;stop-color:color(display-p3 0.8863 0.1020 0.9373);stop-opacity:1;"/>
<stop offset="1" stop-color="#2A76EE" style="stop-color:#2A76EE;stop-color:color(display-p3 0.1647 0.4627 0.9333);stop-opacity:1;"/>
</linearGradient>
<linearGradient id="paint18_linear_102_16" x1="16.7174" y1="1" x2="16.7174" y2="37" gradientUnits="userSpaceOnUse">
<stop stop-color="#F67114" style="stop-color:#F67114;stop-color:color(display-p3 0.9647 0.4431 0.0784);stop-opacity:1;"/>
<stop offset="0.5" stop-color="#E21AEF" style="stop-color:#E21AEF;stop-color:color(display-p3 0.8863 0.1020 0.9373);stop-opacity:1;"/>
<stop offset="1" stop-color="#2A76EE" style="stop-color:#2A76EE;stop-color:color(display-p3 0.1647 0.4627 0.9333);stop-opacity:1;"/>
</linearGradient>
<linearGradient id="paint19_linear_102_16" x1="16.7174" y1="1" x2="16.7174" y2="37" gradientUnits="userSpaceOnUse">
<stop stop-color="#F67114" style="stop-color:#F67114;stop-color:color(display-p3 0.9647 0.4431 0.0784);stop-opacity:1;"/>
<stop offset="0.5" stop-color="#E21AEF" style="stop-color:#E21AEF;stop-color:color(display-p3 0.8863 0.1020 0.9373);stop-opacity:1;"/>
<stop offset="1" stop-color="#2A76EE" style="stop-color:#2A76EE;stop-color:color(display-p3 0.1647 0.4627 0.9333);stop-opacity:1;"/>
</linearGradient>
<linearGradient id="paint20_linear_102_16" x1="16.7174" y1="1" x2="16.7174" y2="37" gradientUnits="userSpaceOnUse">
<stop stop-color="#F67114" style="stop-color:#F67114;stop-color:color(display-p3 0.9647 0.4431 0.0784);stop-opacity:1;"/>
<stop offset="0.5" stop-color="#E21AEF" style="stop-color:#E21AEF;stop-color:color(display-p3 0.8863 0.1020 0.9373);stop-opacity:1;"/>
<stop offset="1" stop-color="#2A76EE" style="stop-color:#2A76EE;stop-color:color(display-p3 0.1647 0.4627 0.9333);stop-opacity:1;"/>
</linearGradient>
<linearGradient id="paint21_linear_102_16" x1="16.7174" y1="1" x2="16.7174" y2="37" gradientUnits="userSpaceOnUse">
<stop stop-color="#F67114" style="stop-color:#F67114;stop-color:color(display-p3 0.9647 0.4431 0.0784);stop-opacity:1;"/>
<stop offset="0.5" stop-color="#E21AEF" style="stop-color:#E21AEF;stop-color:color(display-p3 0.8863 0.1020 0.9373);stop-opacity:1;"/>
<stop offset="1" stop-color="#2A76EE" style="stop-color:#2A76EE;stop-color:color(display-p3 0.1647 0.4627 0.9333);stop-opacity:1;"/>
</linearGradient>
<linearGradient id="paint22_linear_102_16" x1="16.7174" y1="1" x2="16.7174" y2="37" gradientUnits="userSpaceOnUse">
<stop stop-color="#F67114" style="stop-color:#F67114;stop-color:color(display-p3 0.9647 0.4431 0.0784);stop-opacity:1;"/>
<stop offset="0.5" stop-color="#E21AEF" style="stop-color:#E21AEF;stop-color:color(display-p3 0.8863 0.1020 0.9373);stop-opacity:1;"/>
<stop offset="1" stop-color="#2A76EE" style="stop-color:#2A76EE;stop-color:color(display-p3 0.1647 0.4627 0.9333);stop-opacity:1;"/>
</linearGradient>
<linearGradient id="paint23_linear_102_16" x1="16.7174" y1="1" x2="16.7174" y2="37" gradientUnits="userSpaceOnUse">
<stop stop-color="#F67114" style="stop-color:#F67114;stop-color:color(display-p3 0.9647 0.4431 0.0784);stop-opacity:1;"/>
<stop offset="0.5" stop-color="#E21AEF" style="stop-color:#E21AEF;stop-color:color(display-p3 0.8863 0.1020 0.9373);stop-opacity:1;"/>
<stop offset="1" stop-color="#2A76EE" style="stop-color:#2A76EE;stop-color:color(display-p3 0.1647 0.4627 0.9333);stop-opacity:1;"/>
</linearGradient>
<linearGradient id="paint24_linear_102_16" x1="16.7174" y1="1" x2="16.7174" y2="37" gradientUnits="userSpaceOnUse">
<stop stop-color="#F67114" style="stop-color:#F67114;stop-color:color(display-p3 0.9647 0.4431 0.0784);stop-opacity:1;"/>
<stop offset="0.5" stop-color="#E21AEF" style="stop-color:#E21AEF;stop-color:color(display-p3 0.8863 0.1020 0.9373);stop-opacity:1;"/>
<stop offset="1" stop-color="#2A76EE" style="stop-color:#2A76EE;stop-color:color(display-p3 0.1647 0.4627 0.9333);stop-opacity:1;"/>
</linearGradient>
<linearGradient id="paint25_linear_102_16" x1="16.7174" y1="1" x2="16.7174" y2="37" gradientUnits="userSpaceOnUse">
<stop stop-color="#F67114" style="stop-color:#F67114;stop-color:color(display-p3 0.9647 0.4431 0.0784);stop-opacity:1;"/>
<stop offset="0.5" stop-color="#E21AEF" style="stop-color:#E21AEF;stop-color:color(display-p3 0.8863 0.1020 0.9373);stop-opacity:1;"/>
<stop offset="1" stop-color="#2A76EE" style="stop-color:#2A76EE;stop-color:color(display-p3 0.1647 0.4627 0.9333);stop-opacity:1;"/>
</linearGradient>
<linearGradient id="paint26_linear_102_16" x1="16.7174" y1="1" x2="16.7174" y2="37" gradientUnits="userSpaceOnUse">
<stop stop-color="#F67114" style="stop-color:#F67114;stop-color:color(display-p3 0.9647 0.4431 0.0784);stop-opacity:1;"/>
<stop offset="0.5" stop-color="#E21AEF" style="stop-color:#E21AEF;stop-color:color(display-p3 0.8863 0.1020 0.9373);stop-opacity:1;"/>
<stop offset="1" stop-color="#2A76EE" style="stop-color:#2A76EE;stop-color:color(display-p3 0.1647 0.4627 0.9333);stop-opacity:1;"/>
</linearGradient>
<linearGradient id="paint27_linear_102_16" x1="16.7174" y1="1" x2="16.7174" y2="37" gradientUnits="userSpaceOnUse">
<stop stop-color="#F67114" style="stop-color:#F67114;stop-color:color(display-p3 0.9647 0.4431 0.0784);stop-opacity:1;"/>
<stop offset="0.5" stop-color="#E21AEF" style="stop-color:#E21AEF;stop-color:color(display-p3 0.8863 0.1020 0.9373);stop-opacity:1;"/>
<stop offset="1" stop-color="#2A76EE" style="stop-color:#2A76EE;stop-color:color(display-p3 0.1647 0.4627 0.9333);stop-opacity:1;"/>
</linearGradient>
<linearGradient id="paint28_linear_102_16" x1="16.7174" y1="1" x2="16.7174" y2="37" gradientUnits="userSpaceOnUse">
<stop stop-color="#F67114" style="stop-color:#F67114;stop-color:color(display-p3 0.9647 0.4431 0.0784);stop-opacity:1;"/>
<stop offset="0.5" stop-color="#E21AEF" style="stop-color:#E21AEF;stop-color:color(display-p3 0.8863 0.1020 0.9373);stop-opacity:1;"/>
<stop offset="1" stop-color="#2A76EE" style="stop-color:#2A76EE;stop-color:color(display-p3 0.1647 0.4627 0.9333);stop-opacity:1;"/>
</linearGradient>
<linearGradient id="paint29_linear_102_16" x1="16.7174" y1="1" x2="16.7174" y2="37" gradientUnits="userSpaceOnUse">
<stop stop-color="#F67114" style="stop-color:#F67114;stop-color:color(display-p3 0.9647 0.4431 0.0784);stop-opacity:1;"/>
<stop offset="0.5" stop-color="#E21AEF" style="stop-color:#E21AEF;stop-color:color(display-p3 0.8863 0.1020 0.9373);stop-opacity:1;"/>
<stop offset="1" stop-color="#2A76EE" style="stop-color:#2A76EE;stop-color:color(display-p3 0.1647 0.4627 0.9333);stop-opacity:1;"/>
</linearGradient>
<linearGradient id="paint30_linear_102_16" x1="16.7174" y1="1" x2="16.7174" y2="37" gradientUnits="userSpaceOnUse">
<stop stop-color="#F67114" style="stop-color:#F67114;stop-color:color(display-p3 0.9647 0.4431 0.0784);stop-opacity:1;"/>
<stop offset="0.5" stop-color="#E21AEF" style="stop-color:#E21AEF;stop-color:color(display-p3 0.8863 0.1020 0.9373);stop-opacity:1;"/>
<stop offset="1" stop-color="#2A76EE" style="stop-color:#2A76EE;stop-color:color(display-p3 0.1647 0.4627 0.9333);stop-opacity:1;"/>
</linearGradient>
<linearGradient id="paint31_linear_102_16" x1="16.7174" y1="1" x2="16.7174" y2="37" gradientUnits="userSpaceOnUse">
<stop stop-color="#F67114" style="stop-color:#F67114;stop-color:color(display-p3 0.9647 0.4431 0.0784);stop-opacity:1;"/>
<stop offset="0.5" stop-color="#E21AEF" style="stop-color:#E21AEF;stop-color:color(display-p3 0.8863 0.1020 0.9373);stop-opacity:1;"/>
<stop offset="1" stop-color="#2A76EE" style="stop-color:#2A76EE;stop-color:color(display-p3 0.1647 0.4627 0.9333);stop-opacity:1;"/>
</linearGradient>
<linearGradient id="paint32_linear_102_16" x1="16.7174" y1="1" x2="16.7174" y2="37" gradientUnits="userSpaceOnUse">
<stop stop-color="#F67114" style="stop-color:#F67114;stop-color:color(display-p3 0.9647 0.4431 0.0784);stop-opacity:1;"/>
<stop offset="0.5" stop-color="#E21AEF" style="stop-color:#E21AEF;stop-color:color(display-p3 0.8863 0.1020 0.9373);stop-opacity:1;"/>
<stop offset="1" stop-color="#2A76EE" style="stop-color:#2A76EE;stop-color:color(display-p3 0.1647 0.4627 0.9333);stop-opacity:1;"/>
</linearGradient>
<linearGradient id="paint33_linear_102_16" x1="16.7174" y1="1" x2="16.7174" y2="37" gradientUnits="userSpaceOnUse">
<stop stop-color="#F67114" style="stop-color:#F67114;stop-color:color(display-p3 0.9647 0.4431 0.0784);stop-opacity:1;"/>
<stop offset="0.5" stop-color="#E21AEF" style="stop-color:#E21AEF;stop-color:color(display-p3 0.8863 0.1020 0.9373);stop-opacity:1;"/>
<stop offset="1" stop-color="#2A76EE" style="stop-color:#2A76EE;stop-color:color(display-p3 0.1647 0.4627 0.9333);stop-opacity:1;"/>
</linearGradient>
<linearGradient id="paint34_linear_102_16" x1="16.7174" y1="1" x2="16.7174" y2="37" gradientUnits="userSpaceOnUse">
<stop stop-color="#F67114" style="stop-color:#F67114;stop-color:color(display-p3 0.9647 0.4431 0.0784);stop-opacity:1;"/>
<stop offset="0.5" stop-color="#E21AEF" style="stop-color:#E21AEF;stop-color:color(display-p3 0.8863 0.1020 0.9373);stop-opacity:1;"/>
<stop offset="1" stop-color="#2A76EE" style="stop-color:#2A76EE;stop-color:color(display-p3 0.1647 0.4627 0.9333);stop-opacity:1;"/>
</linearGradient>
<linearGradient id="paint35_linear_102_16" x1="16.7174" y1="1" x2="16.7174" y2="37" gradientUnits="userSpaceOnUse">
<stop stop-color="#F67114" style="stop-color:#F67114;stop-color:color(display-p3 0.9647 0.4431 0.0784);stop-opacity:1;"/>
<stop offset="0.5" stop-color="#E21AEF" style="stop-color:#E21AEF;stop-color:color(display-p3 0.8863 0.1020 0.9373);stop-opacity:1;"/>
<stop offset="1" stop-color="#2A76EE" style="stop-color:#2A76EE;stop-color:color(display-p3 0.1647 0.4627 0.9333);stop-opacity:1;"/>
</linearGradient>
<linearGradient id="paint36_linear_102_16" x1="16.7174" y1="1" x2="16.7174" y2="37" gradientUnits="userSpaceOnUse">
<stop stop-color="#F67114" style="stop-color:#F67114;stop-color:color(display-p3 0.9647 0.4431 0.0784);stop-opacity:1;"/>
<stop offset="0.5" stop-color="#E21AEF" style="stop-color:#E21AEF;stop-color:color(display-p3 0.8863 0.1020 0.9373);stop-opacity:1;"/>
<stop offset="1" stop-color="#2A76EE" style="stop-color:#2A76EE;stop-color:color(display-p3 0.1647 0.4627 0.9333);stop-opacity:1;"/>
</linearGradient>
<linearGradient id="paint37_linear_102_16" x1="16.7174" y1="1" x2="16.7174" y2="37" gradientUnits="userSpaceOnUse">
<stop stop-color="#F67114" style="stop-color:#F67114;stop-color:color(display-p3 0.9647 0.4431 0.0784);stop-opacity:1;"/>
<stop offset="0.5" stop-color="#E21AEF" style="stop-color:#E21AEF;stop-color:color(display-p3 0.8863 0.1020 0.9373);stop-opacity:1;"/>
<stop offset="1" stop-color="#2A76EE" style="stop-color:#2A76EE;stop-color:color(display-p3 0.1647 0.4627 0.9333);stop-opacity:1;"/>
</linearGradient>
<linearGradient id="paint38_linear_102_16" x1="16.7174" y1="1" x2="16.7174" y2="37" gradientUnits="userSpaceOnUse">
<stop stop-color="#F67114" style="stop-color:#F67114;stop-color:color(display-p3 0.9647 0.4431 0.0784);stop-opacity:1;"/>
<stop offset="0.5" stop-color="#E21AEF" style="stop-color:#E21AEF;stop-color:color(display-p3 0.8863 0.1020 0.9373);stop-opacity:1;"/>
<stop offset="1" stop-color="#2A76EE" style="stop-color:#2A76EE;stop-color:color(display-p3 0.1647 0.4627 0.9333);stop-opacity:1;"/>
</linearGradient>
<linearGradient id="paint39_linear_102_16" x1="16.7174" y1="1" x2="16.7174" y2="37" gradientUnits="userSpaceOnUse">
<stop stop-color="#F67114" style="stop-color:#F67114;stop-color:color(display-p3 0.9647 0.4431 0.0784);stop-opacity:1;"/>
<stop offset="0.5" stop-color="#E21AEF" style="stop-color:#E21AEF;stop-color:color(display-p3 0.8863 0.1020 0.9373);stop-opacity:1;"/>
<stop offset="1" stop-color="#2A76EE" style="stop-color:#2A76EE;stop-color:color(display-p3 0.1647 0.4627 0.9333);stop-opacity:1;"/>
</linearGradient>
<linearGradient id="paint40_linear_102_16" x1="16.7174" y1="1" x2="16.7174" y2="37" gradientUnits="userSpaceOnUse">
<stop stop-color="#F67114" style="stop-color:#F67114;stop-color:color(display-p3 0.9647 0.4431 0.0784);stop-opacity:1;"/>
<stop offset="0.5" stop-color="#E21AEF" style="stop-color:#E21AEF;stop-color:color(display-p3 0.8863 0.1020 0.9373);stop-opacity:1;"/>
<stop offset="1" stop-color="#2A76EE" style="stop-color:#2A76EE;stop-color:color(display-p3 0.1647 0.4627 0.9333);stop-opacity:1;"/>
</linearGradient>
<linearGradient id="paint41_linear_102_16" x1="16.7174" y1="1" x2="16.7174" y2="37" gradientUnits="userSpaceOnUse">
<stop stop-color="#F67114" style="stop-color:#F67114;stop-color:color(display-p3 0.9647 0.4431 0.0784);stop-opacity:1;"/>
<stop offset="0.5" stop-color="#E21AEF" style="stop-color:#E21AEF;stop-color:color(display-p3 0.8863 0.1020 0.9373);stop-opacity:1;"/>
<stop offset="1" stop-color="#2A76EE" style="stop-color:#2A76EE;stop-color:color(display-p3 0.1647 0.4627 0.9333);stop-opacity:1;"/>
</linearGradient>
<linearGradient id="paint42_linear_102_16" x1="89.4348" y1="6.5" x2="89.4348" y2="31.5" gradientUnits="userSpaceOnUse">
<stop stop-color="#F67114" style="stop-color:#F67114;stop-color:color(display-p3 0.9647 0.4431 0.0784);stop-opacity:1;"/>
<stop offset="0.5" stop-color="#E21AEF" style="stop-color:#E21AEF;stop-color:color(display-p3 0.8863 0.1020 0.9373);stop-opacity:1;"/>
<stop offset="1" stop-color="#2A76EE" style="stop-color:#2A76EE;stop-color:color(display-p3 0.1647 0.4627 0.9333);stop-opacity:1;"/>
</linearGradient>
</defs>
</svg>
